<svg width="24" height="24" viewBox="0 0 24 24" fill="none" xmlns="http://www.w3.org/2000/svg">
  <path
    d="M23.7589 11.6415L13.4935 3.20774C13.0738 2.85833 12.545 2.66699 11.9989 2.66699C11.4528 2.66699 10.924 2.85833 10.5043 3.20774L0.238799 11.6415C0.171656 11.6977 0.11624 11.7666 0.0757144 11.8442C0.0351887 11.9218 0.0103474 12.0067 0.00260907 12.0939C-0.0051293 12.1811 0.00438679 12.269 0.030614 12.3525C0.0568411 12.436 0.0992657 12.5136 0.155465 12.5807L0.582134 13.0932C0.69561 13.2287 0.858233 13.3136 1.03426 13.3292C1.21029 13.3448 1.38532 13.2899 1.52089 13.1766L2.66548 12.2365V19.9995C2.66647 20.3528 2.80726 20.6914 3.0571 20.9412C3.30694 21.1911 3.6455 21.3319 3.99882 21.3329H9.33219C9.68551 21.3319 10.0241 21.1911 10.2739 20.9412C10.5237 20.6914 10.6645 20.3528 10.6655 19.9995V15.6662H13.3322V19.9995C13.3332 20.3528 13.474 20.6914 13.7238 20.9412C13.9737 21.1911 14.3122 21.3319 14.6656 21.3329H19.9989C20.3506 21.3321 20.6878 21.1928 20.9374 20.945C21.187 20.6973 21.3289 20.3612 21.3323 20.0095V12.2357L22.4794 13.1782C22.6149 13.2916 22.79 13.3465 22.966 13.3309C23.142 13.3152 23.3046 13.2304 23.4181 13.0949L23.8444 12.5828C23.9008 12.5155 23.9433 12.4377 23.9695 12.3539C23.9958 12.2701 24.0052 12.1819 23.9973 12.0944C23.9893 12.007 23.9642 11.9219 23.9233 11.8442C23.8824 11.7665 23.8265 11.6976 23.7589 11.6415ZM19.326 19.3328H15.3322V14.9995C15.3312 14.6462 15.1904 14.3076 14.9406 14.0578C14.6908 13.8079 14.3522 13.6671 13.9989 13.6661H9.99886C9.64554 13.6671 9.30697 13.8079 9.05714 14.0578C8.8073 14.3076 8.66651 14.6462 8.66552 14.9995V19.3328H4.66549V10.594L11.9989 4.56817L19.3323 10.5915L19.326 19.3328Z"
    fill="#231F20" />
</svg>